<svg xmlns="http://www.w3.org/2000/svg" version="1.1" xmlns:xlink="http://www.w3.org/1999/xlink" xmlns:svgjs="http://svgjs.dev/svgjs" width="100%" height="100%" viewBox="0 0 1000 600"><rect width="1000" height="600" x="0" y="0" fill="#ee2e24"/><g><circle r="166.66666666666666" cx="394.20217386881507" cy="416.42440629259994" fill="#191970" transform="matrix(0.5493648192814176,0,0,0.5493648192814176,0,71.23108892208876)"/><path d="M279.0970590355442 491.42440927917295L279.0970590355442 491.42440927917295Q274.69549399882226 491.42440927917295 272.77481107370716 487.7697764911068Q270.85412814859217 484.1151437030407 272.37466879764156 480.67392012887626L272.37466879764156 480.67392012887626L328.84808202637134 346.59958149515114Q330.95549801365036 341.4244080580356 336.1573476025036 341.4244080580356L336.1573476025036 341.4244080580356Q341.14578797745514 341.4244080580356 343.2532039647342 346.59958149515114L343.2532039647342 346.59958149515114L399.91335025562796 480.86065319104017Q401.64730011857904 484.5152859791063 399.43317952434916 487.9565095532708Q397.21905893011933 491.42440927917295 393.1909600177253 491.42440927917295L393.1909600177253 491.42440927917295Q390.8968109682823 491.42440927917295 389.0561564983804 490.2773347544515Q387.24217818021623 489.13026022972997 386.0951036554947 486.80943502854933L386.0951036554947 486.80943502854933L333.27632321483105 358.71055438407103L339.22510505234015 358.71055438407103L286.0328584873485 486.80943502854933Q285.072517024791 489.13026022972997 283.23186255488906 490.2773347544515Q281.4178842367249 491.42440927917295 279.0970590355442 491.42440927917295ZM381.29339634270707 455.7050421023807L291.79490726269364 455.7050421023807L297.5569560380388 442.82046081306726L375.531347567362 442.82046081306726L381.29339634270707 455.7050421023807ZM429.87066865707504 491.42440927917295L429.87066865707504 491.42440927917295Q426.61617814507457 491.42440927917295 424.50876215779556 489.31699329189394Q422.4013461705166 487.2095773046149 422.4013461705166 483.92841064087673L422.4013461705166 483.92841064087673L422.4013461705166 348.92040669633184Q422.4013461705166 345.63924003259365 424.50876215779556 343.53182404531464Q426.61617814507457 341.4244080580356 429.87066865707504 341.4244080580356L429.87066865707504 341.4244080580356L468.28432715937595 341.4244080580356Q482.50271603557474 341.4244080580356 493.46661439977316 347.6666275646595Q504.4038366122338 353.9088470712834 510.5393515119069 364.8460692837441Q516.7015425633176 375.8099676479424 516.7015425633176 390.2150895863053L516.7015425633176 390.2150895863053Q516.7015425633176 404.22006924860244 510.5393515119069 415.07726300585Q504.4038366122338 425.93445676309756 493.46661439977316 432.17667626972144Q482.50271603557474 438.41889577634527 468.28432715937595 438.41889577634527L468.28432715937595 438.41889577634527L437.36666729537126 438.41889577634527L437.36666729537126 483.92841064087673Q437.36666729537126 487.2095773046149 435.2592513080923 489.31699329189394Q433.15183532081323 491.42440927917295 429.87066865707504 491.42440927917295ZM437.36666729537126 355.8295299963985L437.36666729537126 424.01377383798246L468.28432715937595 424.01377383798246Q478.10115099885286 424.01377383798246 485.783882699313 419.6922372564736Q493.46661439977316 415.3707006749648 497.788150981282 407.6879689745046Q502.10968756279084 400.0052372740444 502.10968756279084 390.2150895863053L502.10968756279084 390.2150895863053Q502.10968756279084 380.02479962250044 497.788150981282 372.3420679220403Q493.46661439977316 364.65933622158013 485.783882699313 360.2310950331204Q478.10115099885286 355.8295299963985 468.28432715937595 355.8295299963985L468.28432715937595 355.8295299963985L437.36666729537126 355.8295299963985Z " fill="#ffffff" transform="matrix(0.5493648192814176,0,0,0.5493648192814176,0,71.23108892208876)"/><path d="M649.8915367990548 456.83900752029916L649.8915367990548 456.83900752029916Q646.5048377300852 456.83900752029916 645.0270054090802 454.0270210206092Q643.5491730880753 451.2150345209192 644.7191236755375 448.56725161245197L644.7191236755375 448.56725161245197L688.1714990028639 345.4063454267447Q689.7930094661888 341.42440833959245 693.795472002244 341.42440833959245L693.795472002244 341.42440833959245Q697.6337309470762 341.42440833959245 699.2552414104011 345.4063454267447L699.2552414104011 345.4063454267447L742.8512948800474 448.7109297547719Q744.1854490587324 451.52291625446185 742.4818367997962 454.1706991629291Q740.7782245408598 456.83900752029916 737.67888175653 456.83900752029916L737.67888175653 456.83900752029916Q735.9136931508851 456.83900752029916 734.4974371765888 455.9564132174767Q733.1017066511952 455.07381891465434 732.2191123483728 453.28810486010667L732.2191123483728 453.28810486010667L691.5787235207365 354.7248992286371L696.1558986260712 354.7248992286371L655.2281535137951 453.28810486010667Q654.4892373532925 455.07381891465434 653.0729813789961 455.9564132174767Q651.6772508536026 456.83900752029916 649.8915367990548 456.83900752029916ZM728.5245315458604 429.3554314393875L659.6616504768099 429.3554314393875L664.0951474398248 419.4416396193126L724.0910345828455 419.4416396193126L728.5245315458604 429.3554314393875ZM778.0319142995265 456.83900752029916L776.1025221026589 456.83900752029916Q770.1911928186391 456.83900752029916 765.5319159176929 453.5959865936494Q760.8931644656495 450.3324402180968 758.3069579038909 444.56478907639683Q755.7207513421322 438.81766338359984 755.7207513421322 431.26429818735227L755.7207513421322 431.26429818735227L755.7207513421322 347.0278558900696Q755.7207513421322 344.5237511239223 757.2601600098457 342.963817007306Q758.8200941264621 341.42440833959245 761.3241988926094 341.42440833959245L761.3241988926094 341.42440833959245Q763.8488291076595 341.42440833959245 765.388237775373 342.963817007306Q766.9481718919893 344.5237511239223 766.9481718919893 347.0278558900696L766.9481718919893 347.0278558900696L766.9481718919893 431.26429818735227Q766.9481718919893 437.6271873472347 769.534378453748 441.60912443438696Q772.1205850155067 445.61158697044203 776.1025221026589 445.61158697044203L776.1025221026589 445.61158697044203L779.7971029051714 445.61158697044203Q782.0138513866788 445.61158697044203 783.3480055653638 447.1509956381555Q784.6821597440488 448.7109297547719 784.6821597440488 451.2150345209192L784.6821597440488 451.2150345209192Q784.6821597440488 453.7396647359693 782.8348693427927 455.27907340368284Q780.9875789415364 456.83900752029916 778.0319142995265 456.83900752029916L778.0319142995265 456.83900752029916ZM806.1107283986207 491.4243889215957L806.1107283986207 491.4243889215957Q803.4424200412507 491.4243889215957 801.9030113735372 489.8644548049794Q800.3430772569209 488.32504613726593 800.3430772569209 485.6567377798958L800.3430772569209 485.6567377798958L800.3430772569209 415.91126240802294Q800.4867553992408 404.37596012462313 805.8849484606894 395.1395081183421Q811.2831415221381 385.90305611206117 820.5195935284191 380.58696484622385Q829.7560455347001 375.2708735803866 841.270822369197 375.2708735803866L841.270822369197 375.2708735803866Q853.0934809372367 375.2708735803866 862.4120347391291 380.64854119293244Q871.7305885410215 386.0467342543811 877.1082561535673 395.36528805627347Q882.506449215016 404.66331640926296 882.506449215016 416.48597497730265L882.506449215016 416.48597497730265Q882.506449215016 428.16495540302236 877.27245974479 437.48350920491475Q872.0179448256613 446.7815375579043 863.0072727573116 452.17973061935294Q853.996600688962 457.57792368080163 842.6049765478821 457.57792368080163L842.6049765478821 457.57792368080163Q832.71171017671 457.57792368080163 824.6452087578913 453.37020665571805Q816.5992327879753 449.1624896306345 811.7141759490978 442.2043624525695L811.7141759490978 442.2043624525695L811.7141759490978 485.6567377798958Q811.7141759490978 488.32504613726593 810.1747672813844 489.8644548049794Q808.614833164768 491.4243889215957 806.1107283986207 491.4243889215957ZM841.270822369197 447.23309743376694L841.270822369197 447.23309743376694Q849.850460010587 447.23309743376694 856.6443835974292 443.25116034661465Q863.4383071842715 439.2486978105596 867.3586679247152 432.22899428578603Q871.2790286651589 425.2092907610125 871.2790286651589 416.48597497730265L871.2790286651589 416.48597497730265Q871.2790286651589 407.6189810512729 867.3586679247152 400.68137932211073Q863.4383071842715 393.74377759294856 856.6443835974292 389.67973871018495Q849.850460010587 385.6156998274213 841.270822369197 385.6156998274213L841.270822369197 385.6156998274213Q832.8553883190299 385.6156998274213 826.0614647321877 389.67973871018495Q819.2675411453454 393.74377759294856 815.4087567516103 400.68137932211073Q811.5704978067779 407.6189810512729 811.5704978067779 416.48597497730265L811.5704978067779 416.48597497730265Q811.5704978067779 425.2092907610125 815.4087567516103 432.22899428578603Q819.2675411453454 439.2486978105596 826.0614647321877 443.25116034661465Q832.8553883190299 447.23309743376694 841.270822369197 447.23309743376694ZM910.5852633141102 423.87513658232746L910.5852633141102 423.87513658232746Q907.9374804056429 423.87513658232746 906.3775462890267 422.25362611900255Q904.8176121724102 420.6321156556777 904.8176121724102 418.1280108895304L904.8176121724102 418.1280108895304L904.8176121724102 347.1920594812924Q904.8176121724102 344.5237511239223 906.3775462890267 342.963817007306Q907.9374804056429 341.42440833959245 910.5852633141102 341.42440833959245L910.5852633141102 341.42440833959245Q913.1098935291603 341.42440833959245 914.6493021968738 342.963817007306Q916.2092363134901 344.5237511239223 916.2092363134901 347.1920594812924L916.2092363134901 347.1920594812924L916.2092363134901 418.1280108895304Q916.2092363134901 420.6321156556777 914.6493021968738 422.25362611900255Q913.1098935291603 423.87513658232746 910.5852633141102 423.87513658232746ZM974.1320531173234 456.83900752029916L974.1320531173234 456.83900752029916Q971.6279483511761 456.83900752029916 970.0064378878512 455.21749705697425Q968.3644019756234 453.5959865936494 968.3644019756234 451.2150345209192L968.3644019756234 451.2150345209192L968.3644019756234 412.79139417479024Q968.3644019756234 403.63704396412066 964.8956011110424 397.7257146801008Q961.4268002464614 391.814385396081 955.4333691668301 388.85872075407104Q949.4604635361018 385.90305611206117 941.927623788757 385.90305611206117L941.927623788757 385.90305611206117Q934.6821403260521 385.90305611206117 928.8323873887409 388.71504261175113Q923.0031599003323 391.52702911144115 919.5959353824599 396.39156050141577Q916.2092363134901 401.2766173402933 916.2092363134901 407.475302908953L916.2092363134901 407.475302908953L908.0811585479628 407.475302908953Q908.3685148326027 398.17727455596344 913.1098935291603 390.8496892976472Q917.830746776815 383.5426294882338 925.6714682577025 379.3349124631502Q933.4916642896872 375.10666998916383 943.0975743762192 375.10666998916383L943.0975743762192 375.10666998916383Q953.5860787655739 375.10666998916383 961.878360122324 379.4785906054702Q970.1501160301711 383.8299857728736 974.9530710734373 392.2659452719436Q979.7560261167034 400.68137932211073 979.7560261167034 412.79139417479024L979.7560261167034 412.79139417479024L979.7560261167034 451.2150345209192Q979.7560261167034 453.5959865936494 978.1345156533785 455.21749705697425Q976.4924797411508 456.83900752029916 974.1320531173234 456.83900752029916ZM910.5852633141102 456.83900752029916L910.5852633141102 456.83900752029916Q907.9374804056429 456.83900752029916 906.3775462890267 455.27907340368284Q904.8176121724102 453.7396647359693 904.8176121724102 451.2150345209192L904.8176121724102 451.2150345209192L904.8176121724102 381.7569154336861Q904.8176121724102 379.1091325252189 906.3775462890267 377.54919840860254Q907.9374804056429 376.00978974088906 910.5852633141102 376.00978974088906L910.5852633141102 376.00978974088906Q913.1098935291603 376.00978974088906 914.6493021968738 377.54919840860254Q916.2092363134901 379.1091325252189 916.2092363134901 381.7569154336861L916.2092363134901 381.7569154336861L916.2092363134901 451.2150345209192Q916.2092363134901 453.7396647359693 914.6493021968738 455.27907340368284Q913.1098935291603 456.83900752029916 910.5852633141102 456.83900752029916ZM1040.4908294202266 457.57792368080163L1040.4908294202266 457.57792368080163Q1029.1197307280495 457.57792368080163 1020.0885332107971 452.17973061935294Q1011.0778611424473 446.7815375579043 1005.8438716722214 437.48350920491475Q1000.5893567530927 428.16495540302236 1000.5893567530927 416.48597497730265L1000.5893567530927 416.48597497730265Q1000.5893567530927 404.66331640926296 1005.9875498145414 395.36528805627347Q1011.38574287599 386.0467342543811 1020.6837712289796 380.64854119293244Q1030.002325030872 375.2708735803866 1041.6813054565916 375.2708735803866L1041.6813054565916 375.2708735803866Q1053.3397604334086 375.2708735803866 1062.5762124396897 380.64854119293244Q1071.8126644459705 386.0467342543811 1077.2108575074192 395.36528805627347Q1082.6090505688678 404.66331640926296 1082.752728711188 416.48597497730265L1082.752728711188 416.48597497730265L1078.175553605853 420.03687763749514Q1078.175553605853 430.6895856180725 1073.228920420267 439.18712146385104Q1068.282287234681 447.6846573096296 1059.7847513889026 452.6312904952156Q1051.287215543124 457.57792368080163 1040.4908294202266 457.57792368080163ZM1041.6813054565916 447.23309743376694L1041.6813054565916 447.23309743376694Q1050.2404176490788 447.23309743376694 1056.9727648892126 443.25116034661465Q1063.6845866804433 439.2486978105596 1067.6049474208871 432.22899428578603Q1071.5253081613307 425.2092907610125 1071.5253081613307 416.48597497730265L1071.5253081613307 416.48597497730265Q1071.5253081613307 407.6189810512729 1067.6049474208871 400.68137932211073Q1063.6845866804433 393.74377759294856 1056.9727648892126 389.67973871018495Q1050.2404176490788 385.6156998274213 1041.6813054565916 385.6156998274213L1041.6813054565916 385.6156998274213Q1033.2453459575217 385.6156998274213 1026.4514223706794 389.67973871018495Q1019.6574987838372 393.74377759294856 1015.6550362477822 400.68137932211073Q1011.67309916063 407.6189810512729 1011.67309916063 416.48597497730265L1011.67309916063 416.48597497730265Q1011.67309916063 425.2092907610125 1015.6550362477822 432.22899428578603Q1019.6574987838372 439.2486978105596 1026.4514223706794 443.25116034661465Q1033.2453459575217 447.23309743376694 1041.6813054565916 447.23309743376694ZM1076.985077569488 456.83900752029916L1076.985077569488 456.83900752029916Q1074.4809728033406 456.83900752029916 1072.8594623400159 455.27907340368284Q1071.2379518766909 453.7396647359693 1071.2379518766909 451.2150345209192L1071.2379518766909 451.2150345209192L1071.2379518766909 425.94820692151495L1074.029412927478 414.26922649579524L1082.752728711188 416.48597497730265L1082.752728711188 451.2150345209192Q1082.752728711188 453.7396647359693 1081.131218247863 455.27907340368284Q1079.509707784538 456.83900752029916 1076.985077569488 456.83900752029916ZM1112.165696988967 456.83900752029916L1112.165696988967 456.83900752029916Q1109.6615922228198 456.83900752029916 1108.0195563105922 455.21749705697425Q1106.3980458472672 453.5959865936494 1106.3980458472672 451.07135637859926L1106.3980458472672 451.07135637859926L1106.3980458472672 347.1920594812924Q1106.3980458472672 344.66742926624227 1108.0195563105922 343.04591880291736Q1109.6615922228198 341.42440833959245 1112.165696988967 341.42440833959245L1112.165696988967 341.42440833959245L1141.7223434090663 341.42440833959245Q1152.6624076742837 341.42440833959245 1161.0778417244505 346.2273633828586Q1169.5138012235207 351.0303184261247 1174.2346544711754 359.44575247629183Q1178.9555077188302 367.8817119753618 1178.9555077188302 378.965454382899L1178.9555077188302 378.965454382899Q1178.9555077188302 389.7413150568935 1174.2346544711754 398.09517276035206Q1169.5138012235207 406.44903046381063 1161.0778417244505 411.25198550707677Q1152.6624076742837 416.05494055034285 1141.7223434090663 416.05494055034285L1141.7223434090663 416.05494055034285L1117.9333481306671 416.05494055034285L1117.9333481306671 451.07135637859926Q1117.9333481306671 453.5959865936494 1116.3118376673422 455.21749705697425Q1114.6698017551143 456.83900752029916 1112.165696988967 456.83900752029916ZM1117.9333481306671 352.50815074712966L1117.9333481306671 404.9711981428057L1141.7223434090663 404.9711981428057Q1149.255183156411 404.9711981428057 1155.1665124404308 401.64607542054455Q1161.0778417244505 398.32095269828335 1164.4029644467118 392.40962341426354Q1167.728087168973 386.49829413024366 1167.728087168973 378.965454382899L1167.728087168973 378.965454382899Q1167.728087168973 371.1247329020116 1164.4029644467118 365.21340361799173Q1161.0778417244505 359.30207433397186 1155.1665124404308 355.89484981609934Q1149.255183156411 352.50815074712966 1141.7223434090663 352.50815074712966L1141.7223434090663 352.50815074712966L1117.9333481306671 352.50815074712966ZM1203.5039446066348 456.83900752029916L1203.5039446066348 456.83900752029916Q1200.8356362492646 456.83900752029916 1199.2757021326483 455.27907340368284Q1197.7362934649348 453.7396647359693 1197.7362934649348 451.07135637859926L1197.7362934649348 451.07135637859926L1197.7362934649348 381.7569154336861Q1197.7362934649348 379.1091325252189 1199.2757021326483 377.54919840860254Q1200.8356362492646 376.00978974088906 1203.5039446066348 376.00978974088906L1203.5039446066348 376.00978974088906Q1206.008049372782 376.00978974088906 1207.5679834893983 377.54919840860254Q1209.107392157112 379.1091325252189 1209.107392157112 381.7569154336861L1209.107392157112 381.7569154336861L1209.107392157112 451.07135637859926Q1209.107392157112 453.7396647359693 1207.5679834893983 455.27907340368284Q1206.008049372782 456.83900752029916 1203.5039446066348 456.83900752029916ZM1203.339741015412 360.63622851265694L1203.339741015412 360.63622851265694Q1200.0967200887621 360.63622851265694 1197.7362934649348 358.27580188882956Q1195.3758668411074 355.89484981609934 1195.3758668411074 352.50815074712966L1195.3758668411074 352.50815074712966Q1195.3758668411074 348.81356994461726 1197.7978698116435 346.6583978098183Q1200.240398231082 344.5237511239223 1203.5039446066348 344.5237511239223L1203.5039446066348 344.5237511239223Q1206.6032873909644 344.5237511239223 1209.0458158104034 346.6583978098183Q1211.467818780939 348.81356994461726 1211.467818780939 352.50815074712966L1211.467818780939 352.50815074712966Q1211.467818780939 355.89484981609934 1209.107392157112 358.27580188882956Q1206.7469655332843 360.63622851265694 1203.339741015412 360.63622851265694ZM1274.13201428133 457.57792368080163L1274.13201428133 457.57792368080163Q1262.4530338556103 457.57792368080163 1253.380785440552 452.17973061935294Q1244.288011576591 446.7815375579043 1239.0334966574621 437.48350920491475Q1233.7995071872363 428.16495540302236 1233.7995071872363 416.48597497730265L1233.7995071872363 416.48597497730265Q1233.7995071872363 404.66331640926296 1238.8077167195308 395.36528805627347Q1243.8364517007285 386.0467342543811 1252.5597674844382 380.64854119293244Q1261.2830832681482 375.2708735803866 1272.654181960325 375.2708735803866L1272.654181960325 375.2708735803866Q1281.6648540286747 375.2708735803866 1289.2797955716308 378.8012507916762Q1296.8947371145869 382.3521534518687 1302.662388256287 389.4539587722536L1302.662388256287 389.4539587722536Q1304.2838987196117 391.2191473778984 1303.832338843749 393.21011592147454Q1303.4013044167893 395.2216099139535 1301.328234077602 396.6994422349585L1301.328234077602 396.6994422349585Q1299.7067236142768 397.86939282242076 1297.7157550707009 397.4999347421695Q1295.7042610782219 397.1304766619183 1294.2264287572168 395.36528805627347L1294.2264287572168 395.36528805627347Q1285.6673165647298 385.6156998274213 1272.654181960325 385.6156998274213L1272.654181960325 385.6156998274213Q1264.3824260524777 385.6156998274213 1258.1016386882068 389.59763691457357Q1251.8208513239358 393.5795740017258 1248.3520504593546 400.5377011797908Q1244.8832495947736 407.475302908953 1244.8832495947736 416.48597497730265L1244.8832495947736 416.48597497730265Q1244.8832495947736 425.3529689033324 1248.5778303972859 432.3110960813974Q1252.2724111997984 439.2486978105596 1258.9226566443206 443.25116034661465Q1265.572902088843 447.23309743376694 1274.13201428133 447.23309743376694L1274.13201428133 447.23309743376694Q1279.89966542303 447.23309743376694 1284.702620466296 445.67316331715057Q1289.505575509562 444.1337546494371 1293.2001563120746 440.8702082738845L1293.2001563120746 440.8702082738845Q1294.9653449177192 439.3923759528795 1296.8947371145869 439.2486978105596Q1298.8241293114545 439.10501966823966 1300.4456397747795 440.4391738469247L1300.4456397747795 440.4391738469247Q1302.2108283804243 442.06068431024954 1302.4366083183554 444.1337546494371Q1302.662388256287 446.2068249886246 1301.0408777929617 447.6846573096296L1301.0408777929617 447.6846573096296Q1290.2444916700645 457.57792368080163 1274.13201428133 457.57792368080163ZM1385.8520326595242 384.13786750641634L1335.3183774607157 429.78646586634727L1328.3807757315537 422.25362611900255L1378.9144309303622 376.5845023101688Q1380.6796195360068 374.96299184684386 1382.6090117328745 375.04509364245524Q1384.5384039297421 375.10666998916383 1386.1599143930669 376.89238404371144L1386.1599143930669 376.89238404371144Q1387.781424856392 378.65757264935627 1387.6993230607804 380.64854119293244Q1387.6377467140717 382.66003518541135 1385.8520326595242 384.13786750641634L1385.8520326595242 384.13786750641634ZM1331.6237966582034 456.83900752029916L1331.6237966582034 456.83900752029916Q1329.1196918920562 456.83900752029916 1327.5597577754397 455.27907340368284Q1325.9998236588235 453.7396647359693 1325.9998236588235 451.2150345209192L1325.9998236588235 451.2150345209192L1325.9998236588235 347.0278558900696Q1325.9998236588235 344.5237511239223 1327.5597577754397 342.963817007306Q1329.1196918920562 341.42440833959245 1331.6237966582034 341.42440833959245L1331.6237966582034 341.42440833959245Q1334.1279014243507 341.42440833959245 1335.687835540967 342.963817007306Q1337.2477696575836 344.5237511239223 1337.2477696575836 347.0278558900696L1337.2477696575836 347.0278558900696L1337.2477696575836 451.2150345209192Q1337.2477696575836 453.7396647359693 1335.687835540967 455.27907340368284Q1334.1279014243507 456.83900752029916 1331.6237966582034 456.83900752029916ZM1386.3035925353868 456.1000913597967L1386.3035925353868 456.1000913597967Q1384.3742003385194 457.72160182312155 1382.3216554482349 457.49582188519025Q1380.248585109047 457.2905673961618 1378.7707527880423 455.3611751992942L1378.7707527880423 455.3611751992942L1345.8068818500703 414.8644645139778L1353.7912814732779 407.78318464249566L1387.0425086958894 448.7109297547719Q1388.5203410168942 450.4761183604167 1388.3766628745743 452.48761235289567Q1388.2329847322546 454.4785808964718 1386.3035925353868 456.1000913597967ZM1445.704241660225 457.72160182312155L1445.704241660225 457.72160182312155Q1435.2157372708705 457.72160182312155 1426.9439813630233 453.37020665571805Q1418.6722254551762 448.99828603941177 1413.86927041191 440.5828519892446Q1409.066315368644 432.1674179390775 1409.066315368644 420.03687763749514L1409.066315368644 420.03687763749514L1409.066315368644 381.6132372913662Q1409.066315368644 379.2528106675388 1410.6878258319687 377.6313002042139Q1412.3093362952936 376.00978974088906 1414.669762919121 376.00978974088906L1414.669762919121 376.00978974088906Q1417.1943931341712 376.00978974088906 1418.8159035974961 377.6313002042139Q1420.4374140608209 379.2528106675388 1420.4374140608209 381.6132372913662L1420.4374140608209 381.6132372913662L1420.4374140608209 420.03687763749514Q1420.4374140608209 429.21175329706756 1423.906214925402 435.12308258108743Q1427.3955412388857 441.03441186510724 1433.3684468696142 443.9900765071172Q1439.3618779492456 446.94574114912706 1446.89471769659 446.94574114912706L1446.89471769659 446.94574114912706Q1454.1402011592952 446.94574114912706 1459.9694286477036 444.1337546494371Q1465.8191815850148 441.32176814974713 1469.2058806539844 436.4367113108696Q1472.6131051718571 431.57217992089494 1472.6131051718571 425.3529689033324L1472.6131051718571 425.3529689033324L1480.7411829373843 425.3529689033324Q1480.2896230615218 434.6715227052248 1475.6303461605755 441.97858251463816Q1470.9915947085321 449.30616777295444 1463.1508732276448 453.513884798038Q1455.3101517467574 457.72160182312155 1445.704241660225 457.72160182312155ZM1478.2165527223342 456.83900752029916L1478.2165527223342 456.83900752029916Q1475.712447956187 456.83900752029916 1474.1525138395707 455.27907340368284Q1472.6131051718571 453.7396647359693 1472.6131051718571 451.07135637859926L1472.6131051718571 451.07135637859926L1472.6131051718571 381.6132372913662Q1472.6131051718571 379.1091325252189 1474.1525138395707 377.54919840860254Q1475.712447956187 376.00978974088906 1478.2165527223342 376.00978974088906L1478.2165527223342 376.00978974088906Q1480.7411829373843 376.00978974088906 1482.362693400709 377.54919840860254Q1483.9842038640343 379.1091325252189 1483.9842038640343 381.6132372913662L1483.9842038640343 381.6132372913662L1483.9842038640343 451.07135637859926Q1483.9842038640343 453.7396647359693 1482.362693400709 455.27907340368284Q1480.7411829373843 456.83900752029916 1478.2165527223342 456.83900752029916ZM1516.3528367838232 491.4243889215957L1516.3528367838232 491.4243889215957Q1513.6845284264532 491.4243889215957 1512.1451197587396 489.8644548049794Q1510.5851856421234 488.32504613726593 1510.5851856421234 485.6567377798958L1510.5851856421234 485.6567377798958L1510.5851856421234 415.91126240802294Q1510.7288637844433 404.37596012462313 1516.127056845892 395.1395081183421Q1521.5252499073406 385.90305611206117 1530.7617019136217 380.58696484622385Q1539.9981539199025 375.2708735803866 1551.5334562033024 375.2708735803866L1551.5334562033024 375.2708735803866Q1563.356114771342 375.2708735803866 1572.6541431243315 380.64854119293244Q1581.972696926224 386.0467342543811 1587.3708899876726 395.36528805627347Q1592.7485576002184 404.66331640926296 1592.7485576002184 416.48597497730265L1592.7485576002184 416.48597497730265Q1592.7485576002184 428.16495540302236 1587.5145681299925 437.48350920491475Q1582.2600532108638 446.7815375579043 1573.249381142514 452.17973061935294Q1564.2387090741645 457.57792368080163 1552.8470849330845 457.57792368080163L1552.8470849330845 457.57792368080163Q1542.9538185619124 457.57792368080163 1534.9078425919965 453.37020665571805Q1526.8413411731779 449.1624896306345 1521.9768097832032 442.2043624525695L1521.9768097832032 442.2043624525695L1521.9768097832032 485.6567377798958Q1521.9768097832032 488.32504613726593 1520.416875666587 489.8644548049794Q1518.8569415499705 491.4243889215957 1516.3528367838232 491.4243889215957ZM1551.5334562033024 447.23309743376694L1551.5334562033024 447.23309743376694Q1560.0925683957896 447.23309743376694 1566.8864919826317 443.25116034661465Q1573.7009410183766 439.2486978105596 1577.6007763099176 432.22899428578603Q1581.5211370503614 425.2092907610125 1581.5211370503614 416.48597497730265L1581.5211370503614 416.48597497730265Q1581.5211370503614 407.6189810512729 1577.6007763099176 400.68137932211073Q1573.7009410183766 393.74377759294856 1566.8864919826317 389.67973871018495Q1560.0925683957896 385.6156998274213 1551.5334562033024 385.6156998274213L1551.5334562033024 385.6156998274213Q1543.0974967042323 385.6156998274213 1536.3035731173902 389.67973871018495Q1529.509649530548 393.74377759294856 1525.6713905857157 400.68137932211073Q1521.8126061919804 407.6189810512729 1521.8126061919804 416.48597497730265L1521.8126061919804 416.48597497730265Q1521.8126061919804 425.2092907610125 1525.6713905857157 432.22899428578603Q1529.509649530548 439.2486978105596 1536.3035731173902 443.25116034661465Q1543.0974967042323 447.23309743376694 1551.5334562033024 447.23309743376694Z " fill="#FFFFFFFF" transform="matrix(0.5493648192814176,0,0,0.5493648192814176,0,71.23108892208876)"/></g></svg>